# xmcd CD database file
#
# Track frame offsets:
#	150
#	16762
#	34417
#	56256
#	73451
#	88376
#	102586
#	119402
#	139719
#
# Disc length: 2012 seconds
#
# Revision: 1
# Processed by: cddbd v1.5.1PL0 Copyright (c) Steve Scherf et al.
# Submitted via: CDex 1.50
#
DISCID=8307da09
DTITLE=昼海幹音 - 夢と寝言
DYEAR=2001
DGENRE=Rock
TTITLE0=you are still alive
TTITLE1=everything is mystery
TTITLE2=if you can touch it
TTITLE3=monkey
TTITLE4=is that all your chromosomes
TTITLE5=hide only your ass!
TTITLE6=cage
TTITLE7=he delieves
TTITLE8=blood is flowing
EXTD=YEAR: 2001
EXTT0=
EXTT1=
EXTT2=
EXTT3=
EXTT4=
EXTT5=
EXTT6=
EXTT7=
EXTT8=
PLAYORDER=
